<?xml version="1.0" encoding="utf-8"?>
<!-- Generator: Adobe Illustrator 16.0.0, SVG Export Plug-In . SVG Version: 6.00 Build 0)  -->
<!DOCTYPE svg PUBLIC "-//W3C//DTD SVG 1.1//EN" "http://www.w3.org/Graphics/SVG/1.1/DTD/svg11.dtd">
<svg version="1.1" id="Layer_1" xmlns="http://www.w3.org/2000/svg" xmlns:xlink="http://www.w3.org/1999/xlink" x="0px" y="0px"
	 width="408.713px" height="12.686px" viewBox="0 0 408.713 12.686" enable-background="new 0 0 408.713 12.686"
	 xml:space="preserve">
<g>
	<g>
		<g>
			<path fill="#FFFFFF" d="M6.53,12.263L4.579,8.233H3.243v4.029H0V0.313h5.343c0.695,0,1.328,0.072,1.903,0.215
				s1.067,0.365,1.476,0.673c0.409,0.306,0.726,0.71,0.946,1.202c0.223,0.496,0.334,1.098,0.334,1.803
				c0,0.898-0.194,1.634-0.581,2.201c-0.388,0.57-0.914,1.002-1.574,1.297l2.393,4.559H6.53z M6.372,3.37
				C6.151,3.132,5.775,3.011,5.25,3.011H3.243v2.61h1.956c0.548,0,0.936-0.113,1.164-0.34c0.229-0.228,0.344-0.558,0.344-0.989
				C6.707,3.915,6.597,3.608,6.372,3.37z"/>
		</g>
		<g>
			<path fill="#FFFFFF" d="M12.221,12.263V0.313h9.147v2.785h-5.871v1.603h3.533v2.729h-3.533v2.049h5.992v2.783H12.221z"/>
		</g>
		<g>
			<path fill="#FFFFFF" d="M33.521,9.062c-0.272,0.77-0.684,1.389-1.229,1.859c-0.546,0.475-1.222,0.816-2.022,1.025
				c-0.801,0.211-1.731,0.316-2.79,0.316h-3.874V0.313h4.181c0.934,0,1.78,0.097,2.544,0.29c0.761,0.194,1.407,0.521,1.935,0.983
				c0.53,0.46,0.939,1.064,1.23,1.818c0.29,0.749,0.435,1.688,0.435,2.812C33.93,7.347,33.793,8.292,33.521,9.062z M30.389,4.855
				c-0.098-0.399-0.253-0.724-0.471-0.976c-0.215-0.248-0.501-0.434-0.853-0.553c-0.352-0.12-0.784-0.18-1.296-0.18h-0.821v6.279
				h0.719c0.511,0,0.949-0.053,1.313-0.159c0.365-0.11,0.664-0.286,0.896-0.529c0.235-0.245,0.402-0.569,0.505-0.974
				c0.1-0.404,0.153-0.902,0.153-1.494C30.533,5.726,30.485,5.251,30.389,4.855z"/>
		</g>
		<g>
			<path fill="#FFFFFF" d="M47.977,12.263V7.552h-3.722v4.711h-3.377V0.313h3.377v4.354h3.722V0.313h3.377v11.949H47.977z"/>
		</g>
		<g>
			<path fill="#FFFFFF" d="M61.494,12.263l-0.648-2.1H57.26l-0.65,2.1h-3.549l4.336-11.949h3.344l4.336,11.949H61.494z M59.82,6.749
				c-0.102-0.387-0.194-0.725-0.273-1.006c-0.081-0.285-0.151-0.542-0.212-0.77c-0.062-0.227-0.117-0.434-0.163-0.623
				c-0.046-0.189-0.084-0.383-0.119-0.588c-0.035,0.205-0.075,0.404-0.121,0.598c-0.044,0.192-0.099,0.402-0.16,0.63
				c-0.063,0.227-0.135,0.483-0.214,0.77c-0.08,0.282-0.171,0.614-0.274,0.989l-0.223,0.786h1.981L59.82,6.749z"/>
		</g>
		<g>
			<path fill="#FFFFFF" d="M71.323,3.199v9.063h-3.311V3.199h-3.344V0.313H74.67v2.886H71.323z"/>
		</g>
	</g>
	<g>
		<path fill="#FFFFFF" d="M78.563,1.981c-0.06,0.146-0.146,0.273-0.253,0.379c-0.106,0.108-0.234,0.193-0.378,0.254
			c-0.147,0.062-0.305,0.09-0.475,0.09c-0.171,0-0.33-0.028-0.474-0.09c-0.148-0.061-0.273-0.146-0.382-0.254
			c-0.107-0.105-0.19-0.232-0.251-0.379c-0.062-0.146-0.092-0.306-0.092-0.475c0-0.17,0.03-0.328,0.092-0.475
			c0.061-0.146,0.144-0.271,0.251-0.379c0.108-0.109,0.234-0.191,0.382-0.254c0.144-0.061,0.302-0.091,0.474-0.091
			c0.169,0,0.328,0.03,0.475,0.091c0.145,0.062,0.272,0.145,0.378,0.254c0.107,0.107,0.193,0.232,0.253,0.379
			c0.061,0.146,0.09,0.305,0.09,0.475C78.653,1.676,78.624,1.835,78.563,1.981z M78.385,1.111c-0.05-0.122-0.121-0.229-0.213-0.321
			c-0.091-0.092-0.196-0.162-0.319-0.214c-0.123-0.05-0.254-0.074-0.396-0.074c-0.145,0-0.278,0.024-0.399,0.074
			c-0.122,0.052-0.228,0.122-0.319,0.214c-0.089,0.092-0.16,0.199-0.212,0.321c-0.051,0.123-0.075,0.255-0.075,0.396
			c0,0.143,0.024,0.277,0.075,0.398c0.053,0.121,0.123,0.227,0.212,0.318c0.091,0.092,0.198,0.162,0.319,0.213
			c0.121,0.05,0.254,0.074,0.399,0.074c0.142,0,0.273-0.024,0.396-0.074c0.123-0.051,0.229-0.121,0.319-0.213
			c0.092-0.092,0.163-0.197,0.213-0.318s0.076-0.256,0.076-0.398C78.461,1.366,78.435,1.234,78.385,1.111z M77.923,1.477
			c-0.051,0.065-0.117,0.11-0.202,0.134l0.27,0.528h-0.261l-0.254-0.507h-0.252v0.507H77V0.831h0.573
			c0.058,0,0.113,0.008,0.165,0.021c0.052,0.016,0.097,0.039,0.134,0.072c0.04,0.031,0.07,0.072,0.094,0.123
			C77.988,1.097,78,1.155,78,1.226C78,1.33,77.976,1.412,77.923,1.477z M77.719,1.093c-0.04-0.032-0.091-0.047-0.149-0.047h-0.346
			v0.372h0.346c0.058,0,0.109-0.017,0.149-0.046c0.038-0.029,0.059-0.076,0.059-0.141C77.777,1.169,77.756,1.121,77.719,1.093z"/>
	</g>
	<g>
		<path fill="#FFFFFF" d="M215.8,12.271V7.835c0-0.161,0.003-0.368,0.009-0.621s0.009-0.512,0.009-0.777
			c0-0.264,0.003-0.512,0.009-0.742c0.005-0.23,0.009-0.403,0.009-0.518c-0.092,0.23-0.217,0.535-0.373,0.915
			c-0.155,0.379-0.314,0.742-0.475,1.087l-2.457,5.367l-2.445-5.367c-0.16-0.346-0.318-0.708-0.473-1.087
			c-0.155-0.38-0.279-0.685-0.37-0.915c0,0.115,0.002,0.288,0.008,0.518c0.006,0.23,0.009,0.478,0.009,0.742
			c0,0.265,0.002,0.524,0.009,0.777c0.005,0.253,0.008,0.46,0.008,0.621v4.436h-2.364V0.19h2.33l2.513,5.471
			c0.08,0.172,0.16,0.354,0.241,0.543c0.08,0.19,0.157,0.377,0.232,0.561c0.074,0.184,0.144,0.357,0.206,0.518
			c0.063,0.161,0.112,0.293,0.146,0.396c0.081-0.23,0.196-0.537,0.346-0.923c0.15-0.385,0.307-0.75,0.468-1.096l2.44-5.471h2.364
			v12.081H215.8z"/>
		<path fill="#FFFFFF" d="M221.496,12.271V0.19h2.398v12.081H221.496z"/>
		<path fill="#FFFFFF" d="M236.451,8.965c-0.352,0.766-0.818,1.393-1.398,1.882c-0.581,0.489-1.242,0.849-1.984,1.079
			s-1.499,0.345-2.27,0.345h-3.607V0.19h3.779c0.863,0,1.66,0.106,2.391,0.319c0.73,0.213,1.363,0.561,1.898,1.044
			c0.535,0.483,0.955,1.107,1.26,1.873s0.457,1.7,0.457,2.804C236.976,7.289,236.8,8.201,236.451,8.965z M233.642,3.473
			c-0.565-0.613-1.489-0.919-2.771-0.919h-1.282v7.352h1.195c0.635,0,1.187-0.089,1.654-0.266c0.467-0.178,0.852-0.428,1.151-0.748
			s0.525-0.707,0.676-1.159c0.149-0.452,0.226-0.954,0.226-1.503C234.492,5.005,234.208,4.086,233.642,3.473z"/>
		<path fill="#FFFFFF" d="M248.652,8.965c-0.352,0.766-0.818,1.393-1.398,1.882c-0.581,0.489-1.242,0.849-1.984,1.079
			s-1.499,0.345-2.27,0.345h-3.607V0.19h3.779c0.863,0,1.66,0.106,2.391,0.319c0.73,0.213,1.363,0.561,1.898,1.044
			c0.535,0.483,0.955,1.107,1.26,1.873s0.457,1.7,0.457,2.804C249.177,7.289,249.001,8.201,248.652,8.965z M245.843,3.473
			c-0.565-0.613-1.489-0.919-2.771-0.919h-1.282v7.352h1.195c0.635,0,1.187-0.089,1.654-0.266c0.467-0.178,0.852-0.428,1.151-0.748
			s0.525-0.707,0.676-1.159c0.149-0.452,0.226-0.954,0.226-1.503C246.693,5.005,246.41,4.086,245.843,3.473z"/>
		<path fill="#FFFFFF" d="M251.593,12.271V0.19h2.399v9.716h6.058v2.364H251.593z"/>
		<path fill="#FFFFFF" d="M262.293,12.271V0.19h8.37v2.364h-5.971v2.071h3.469v2.364h-3.469v2.917h6.23v2.364H262.293z"/>
		<path fill="#FFFFFF" d="M283.609,12.271h-2.365l-1.484-6.213c-0.092-0.368-0.176-0.748-0.25-1.139s-0.129-0.702-0.164-0.932
			c-0.023,0.23-0.072,0.544-0.146,0.941s-0.158,0.774-0.25,1.13l-1.52,6.213h-2.26L272.65,0.19h2.52l1.053,5.885
			c0.057,0.299,0.113,0.642,0.172,1.027c0.057,0.386,0.098,0.705,0.121,0.958c0.045-0.253,0.109-0.572,0.189-0.958
			c0.08-0.385,0.156-0.728,0.225-1.027l1.416-5.885h2.105l1.432,5.885c0.068,0.299,0.145,0.642,0.225,1.027
			c0.08,0.386,0.143,0.705,0.189,0.958c0.023-0.253,0.062-0.575,0.121-0.966c0.057-0.391,0.115-0.731,0.172-1.019l1.053-5.885h2.486
			L283.609,12.271z"/>
		<path fill="#FFFFFF" d="M295.412,12.271l-0.949-2.692h-4.418l-0.949,2.692h-2.588l4.625-12.081h2.348l4.59,12.081H295.412z
			 M292.857,5.091c-0.125-0.356-0.244-0.701-0.354-1.035c-0.109-0.333-0.191-0.615-0.25-0.846c-0.057,0.23-0.141,0.512-0.25,0.846
			c-0.109,0.334-0.227,0.679-0.354,1.035l-0.777,2.192h2.762L292.857,5.091z"/>
		<path fill="#FFFFFF" d="M307.314,12.271l-2.162-4.349h-2.439v4.349h-2.398V0.19h5.627c0.562,0,1.098,0.078,1.604,0.233
			c0.508,0.155,0.949,0.394,1.33,0.716c0.379,0.322,0.678,0.722,0.896,1.199s0.328,1.039,0.328,1.683
			c0,0.909-0.193,1.654-0.578,2.235c-0.385,0.581-0.963,1.021-1.734,1.32l2.312,4.694H307.314z M307.156,2.906
			c-0.307-0.234-0.73-0.352-1.273-0.352h-3.17v3.089h3.17c1.154,0,1.732-0.521,1.732-1.562
			C307.615,3.532,307.46,3.141,307.156,2.906z"/>
		<path fill="#FFFFFF" d="M312.636,12.271V0.19h8.371v2.364h-5.973v2.071h3.469v2.364h-3.469v2.917h6.23v2.364H312.636z"/>
		<path fill="#FFFFFF" d="M336.47,12.271l-3.279-5.833l-1.934,2.278v3.556h-2.398V0.19h2.398v3.434c0,0.115,0,0.265,0,0.449
			c0,0.173-0.002,0.351-0.008,0.535s-0.012,0.362-0.018,0.535c-0.006,0.172-0.008,0.305-0.008,0.396
			c0.08-0.138,0.217-0.328,0.414-0.569c0.195-0.242,0.373-0.46,0.535-0.656l3.381-4.125h2.918l-3.539,4.176l4.436,7.904H336.47z"/>
		<path fill="#FFFFFF" d="M341.285,12.271V0.19h8.369v2.364h-5.971v2.071h3.469v2.364h-3.469v2.917h6.23v2.364H341.285z"/>
		<path fill="#FFFFFF" d="M357.937,7.49v4.78h-2.398V7.541l-4.572-7.351h2.777l1.709,2.865c0.104,0.184,0.221,0.388,0.352,0.613
			c0.131,0.224,0.258,0.449,0.377,0.673c0.121,0.224,0.232,0.432,0.334,0.621c0.104,0.19,0.184,0.343,0.24,0.458
			c0.057-0.115,0.137-0.268,0.24-0.458c0.104-0.189,0.215-0.394,0.334-0.612s0.242-0.44,0.369-0.665
			c0.125-0.225,0.246-0.434,0.359-0.63l1.709-2.865h2.744L357.937,7.49z"/>
		<path fill="#FFFFFF" d="M372.107,12.271l-4.436-6.593c-0.15-0.23-0.309-0.475-0.475-0.733s-0.291-0.469-0.371-0.63
			c0,0.115,0.002,0.285,0.008,0.509c0.006,0.224,0.01,0.469,0.01,0.733c0,0.253,0.002,0.506,0.008,0.759
			c0.006,0.253,0.01,0.466,0.01,0.639v5.315h-2.398V0.19h2.328l4.266,6.385c0.15,0.23,0.307,0.475,0.475,0.733
			c0.166,0.259,0.289,0.469,0.369,0.63c0-0.114-0.004-0.284-0.008-0.509c-0.008-0.225-0.01-0.463-0.01-0.716
			c0-0.265-0.002-0.523-0.008-0.777c-0.006-0.253-0.01-0.466-0.01-0.638V0.19h2.398v12.081H372.107z"/>
		<path fill="#FFFFFF" d="M386.941,8.836c-0.26,0.771-0.625,1.424-1.096,1.959c-0.473,0.535-1.035,0.946-1.691,1.234
			c-0.656,0.287-1.375,0.432-2.158,0.432c-0.793,0-1.516-0.142-2.164-0.424c-0.65-0.281-1.209-0.689-1.676-1.225
			c-0.465-0.535-0.828-1.186-1.086-1.951c-0.26-0.764-0.389-1.636-0.389-2.614s0.129-1.853,0.389-2.624
			c0.258-0.771,0.623-1.424,1.096-1.958c0.471-0.535,1.035-0.946,1.691-1.234C380.513,0.144,381.238,0,382.031,0
			c0.783,0,1.498,0.141,2.148,0.423s1.209,0.69,1.674,1.225c0.467,0.535,0.828,1.185,1.088,1.95s0.389,1.637,0.389,2.615
			C387.33,7.191,387.201,8.065,386.941,8.836z M384.05,3.4c-0.529-0.667-1.221-1.001-2.07-1.001c-0.852,0-1.533,0.328-2.045,0.983
			c-0.514,0.656-0.77,1.6-0.77,2.831c0,1.231,0.266,2.181,0.795,2.848c0.529,0.668,1.219,1.001,2.07,1.001s1.533-0.328,2.045-0.983
			c0.512-0.656,0.768-1.6,0.768-2.831S384.58,4.067,384.05,3.4z"/>
		<path fill="#FFFFFF" d="M394.267,2.554v9.716h-2.4V2.554h-3.469V0.19h9.338v2.364H394.267z"/>
		<path fill="#FFFFFF" d="M400.083,12.271V0.19h8.369v2.364h-5.971v2.071h3.469v2.364h-3.469v2.917h6.23v2.364H400.083z"/>
	</g>
	<g>
		<path fill="#FFFFFF" d="M93.01,10.338c-0.248,0.494-0.593,0.896-1.036,1.208c-0.443,0.311-0.969,0.54-1.579,0.69
			c-0.61,0.148-1.277,0.225-2.002,0.225c-0.978,0-1.913-0.142-2.805-0.424c-0.892-0.281-1.654-0.629-2.287-1.044l1.623-2.623
			c0.218,0.149,0.475,0.296,0.768,0.44c0.293,0.144,0.598,0.273,0.915,0.389c0.316,0.114,0.635,0.207,0.958,0.275
			s0.622,0.104,0.897,0.104c0.598,0,1.01-0.057,1.234-0.172c0.225-0.115,0.337-0.316,0.337-0.604c0-0.115-0.032-0.219-0.095-0.312
			c-0.063-0.092-0.172-0.181-0.328-0.267c-0.155-0.087-0.366-0.173-0.63-0.259c-0.265-0.086-0.599-0.176-1.001-0.268
			c-0.725-0.173-1.358-0.357-1.898-0.553c-0.541-0.195-0.99-0.44-1.346-0.733c-0.357-0.293-0.625-0.647-0.803-1.061
			c-0.178-0.415-0.268-0.926-0.268-1.536c0-0.563,0.112-1.082,0.337-1.553c0.224-0.472,0.543-0.875,0.958-1.208
			c0.415-0.333,0.915-0.593,1.501-0.777C87.047,0.092,87.703,0,88.428,0c1.035,0,1.936,0.121,2.701,0.362s1.47,0.587,2.114,1.036
			L91.62,4.021c-0.541-0.368-1.082-0.65-1.622-0.846c-0.541-0.195-1.122-0.293-1.743-0.293c-0.506,0-0.84,0.069-1.001,0.207
			c-0.161,0.138-0.242,0.317-0.242,0.535c0,0.115,0.032,0.216,0.095,0.302c0.063,0.086,0.169,0.167,0.319,0.242
			c0.149,0.075,0.351,0.149,0.604,0.224c0.253,0.075,0.575,0.158,0.966,0.25c0.759,0.184,1.415,0.385,1.967,0.604
			c0.552,0.218,1.007,0.478,1.364,0.776c0.356,0.299,0.621,0.656,0.793,1.07c0.173,0.415,0.259,0.903,0.259,1.467
			C93.381,9.25,93.257,9.844,93.01,10.338z"/>
		<path fill="#FFFFFF" d="M105.349,9.561c-0.271,0.68-0.645,1.234-1.122,1.666c-0.478,0.432-1.042,0.745-1.691,0.94
			s-1.354,0.294-2.114,0.294c-0.759,0-1.461-0.099-2.105-0.294s-1.199-0.509-1.666-0.94c-0.466-0.432-0.831-0.986-1.096-1.666
			c-0.265-0.678-0.397-1.495-0.397-2.45V0.19h3.417v6.92c0,0.748,0.152,1.335,0.458,1.761c0.305,0.426,0.785,0.639,1.441,0.639
			s1.13-0.213,1.424-0.639s0.44-1.013,0.44-1.761V0.19h3.417v6.92C105.755,8.065,105.62,8.883,105.349,9.561z"/>
		<path fill="#FFFFFF" d="M116.852,12.271V9.389c0-0.599,0.005-1.165,0.017-1.7c0.011-0.535,0.029-1.038,0.052-1.51
			c-0.092,0.23-0.196,0.483-0.311,0.759c-0.115,0.276-0.236,0.556-0.362,0.838c-0.127,0.281-0.253,0.558-0.38,0.828
			c-0.126,0.27-0.242,0.515-0.345,0.732l-1.587,3.349l-1.588-3.349c-0.104-0.218-0.219-0.463-0.345-0.732
			c-0.127-0.271-0.253-0.547-0.38-0.828c-0.126-0.282-0.248-0.562-0.362-0.838c-0.115-0.276-0.219-0.529-0.311-0.759
			c0.023,0.472,0.04,0.975,0.052,1.51c0.011,0.535,0.017,1.102,0.017,1.7v2.882h-3.141V0.19h3.072l1.484,3.227
			c0.184,0.391,0.356,0.768,0.518,1.13s0.308,0.702,0.44,1.018c0.132,0.317,0.248,0.602,0.345,0.854
			c0.098,0.253,0.169,0.466,0.216,0.639c0.104-0.345,0.288-0.831,0.552-1.458c0.265-0.627,0.587-1.354,0.966-2.183l1.484-3.227
			h3.038v12.081H116.852z"/>
		<path fill="#FFFFFF" d="M131.159,12.271V9.389c0-0.599,0.005-1.165,0.017-1.7c0.011-0.535,0.029-1.038,0.052-1.51
			c-0.092,0.23-0.196,0.483-0.311,0.759c-0.115,0.276-0.236,0.556-0.362,0.838c-0.127,0.281-0.253,0.558-0.38,0.828
			c-0.126,0.27-0.242,0.515-0.345,0.732l-1.587,3.349l-1.588-3.349c-0.104-0.218-0.219-0.463-0.345-0.732
			c-0.127-0.271-0.253-0.547-0.38-0.828c-0.126-0.282-0.248-0.562-0.362-0.838c-0.115-0.276-0.219-0.529-0.311-0.759
			c0.023,0.472,0.04,0.975,0.052,1.51c0.011,0.535,0.017,1.102,0.017,1.7v2.882h-3.141V0.19h3.072l1.484,3.227
			c0.184,0.391,0.356,0.768,0.518,1.13s0.308,0.702,0.44,1.018c0.132,0.317,0.248,0.602,0.345,0.854
			c0.098,0.253,0.169,0.466,0.216,0.639c0.104-0.345,0.288-0.831,0.552-1.458c0.265-0.627,0.587-1.354,0.966-2.183l1.484-3.227
			h3.038v12.081H131.159z"/>
		<path fill="#FFFFFF" d="M136.577,12.271V0.19h3.417v12.081H136.577z"/>
		<path fill="#FFFFFF" d="M148.503,3.106v9.164h-3.349V3.106h-3.383V0.19h10.113v2.917H148.503z"/>
		<path fill="#FFFFFF" d="M158.703,12.271c0.022-1.013,0.157-1.904,0.405-2.675c0.247-0.771,0.587-1.449,1.019-2.037
			c0.431-0.586,0.951-1.096,1.562-1.527c0.609-0.432,1.294-0.814,2.054-1.148c0.322-0.138,0.578-0.259,0.768-0.362
			c0.19-0.104,0.337-0.201,0.44-0.293c0.104-0.092,0.173-0.181,0.207-0.268c0.034-0.086,0.052-0.192,0.052-0.319
			c0-0.265-0.104-0.469-0.311-0.613s-0.552-0.216-1.035-0.216c-0.61,0-1.208,0.104-1.795,0.311s-1.186,0.512-1.795,0.915
			l-1.536-2.468c0.771-0.495,1.567-0.88,2.391-1.156C161.95,0.138,162.878,0,163.915,0c1.507,0,2.646,0.291,3.417,0.872
			c0.771,0.581,1.156,1.424,1.156,2.528c0,0.403-0.04,0.765-0.121,1.087c-0.08,0.322-0.228,0.627-0.439,0.915
			c-0.214,0.288-0.507,0.563-0.881,0.828c-0.374,0.265-0.849,0.529-1.424,0.794c-0.609,0.277-1.113,0.529-1.51,0.759
			c-0.397,0.23-0.723,0.446-0.976,0.647S162.695,8.822,162.568,9c-0.127,0.179-0.224,0.359-0.293,0.543h6.299v2.728H158.703z"/>
		<path fill="#FFFFFF" d="M180.517,8.879c-0.276,0.777-0.659,1.43-1.147,1.959c-0.489,0.529-1.07,0.932-1.743,1.209
			c-0.674,0.275-1.401,0.414-2.184,0.414s-1.508-0.136-2.175-0.406c-0.667-0.27-1.242-0.667-1.726-1.191
			c-0.483-0.523-0.863-1.173-1.139-1.949c-0.276-0.777-0.414-1.666-0.414-2.667c0-1.001,0.138-1.89,0.414-2.667
			c0.275-0.777,0.658-1.43,1.147-1.959c0.489-0.529,1.07-0.932,1.743-1.208S174.695,0,175.477,0s1.508,0.135,2.175,0.405
			c0.667,0.271,1.243,0.667,1.726,1.191c0.483,0.524,0.863,1.174,1.14,1.95c0.276,0.777,0.414,1.666,0.414,2.667
			S180.793,8.103,180.517,8.879z M176.961,3.728c-0.356-0.563-0.862-0.846-1.519-0.846c-0.655,0-1.156,0.276-1.501,0.829
			c-0.346,0.552-0.519,1.387-0.519,2.502c0,1.116,0.179,1.956,0.535,2.52c0.356,0.564,0.863,0.846,1.519,0.846
			c0.656,0,1.156-0.275,1.502-0.828c0.345-0.553,0.518-1.387,0.518-2.502C177.497,5.131,177.318,4.292,176.961,3.728z"/>
		<path fill="#FFFFFF" d="M184.106,12.271V3.952h-2.036V1.829c0.391-0.023,0.725-0.069,1.001-0.138
			c0.276-0.069,0.512-0.167,0.707-0.293c0.196-0.126,0.357-0.291,0.483-0.492c0.127-0.201,0.236-0.44,0.328-0.716h2.796v12.081
			H184.106z"/>
		<path fill="#FFFFFF" d="M198.335,11.321c-0.949,0.759-2.286,1.14-4.013,1.14c-1.047,0-1.981-0.133-2.804-0.395
			c-0.823-0.264-1.608-0.617-2.356-1.064l1.363-2.494c0.587,0.346,1.217,0.631,1.891,0.854c0.673,0.225,1.337,0.337,1.993,0.337
			c0.782,0,1.331-0.137,1.647-0.408s0.475-0.65,0.475-1.137c0-0.475-0.141-0.83-0.423-1.068c-0.281-0.237-0.682-0.356-1.199-0.356
			s-0.943,0.061-1.277,0.181c-0.333,0.121-0.649,0.292-0.949,0.509l-2.864-0.966l0.414-6.265h8.802v2.727h-6.092l-0.104,1.674
			c0.334-0.161,0.699-0.29,1.097-0.388c0.396-0.098,0.899-0.146,1.51-0.146c0.656,0,1.248,0.083,1.777,0.25
			c0.529,0.167,0.981,0.415,1.355,0.742c0.373,0.328,0.664,0.745,0.871,1.251s0.311,1.093,0.311,1.76
			C199.759,9.475,199.285,10.562,198.335,11.321z"/>
	</g>
</g>
</svg>
