<?xml version="1.0" encoding="utf-8"?>
<!-- Generator: Adobe Illustrator 18.1.1, SVG Export Plug-In . SVG Version: 6.00 Build 0)  -->
<svg version="1.1" id="logo" xmlns="http://www.w3.org/2000/svg" xmlns:xlink="http://www.w3.org/1999/xlink" x="0px" y="0px"
	 viewBox="-300 -96.3 600 192.6" enable-background="new -300 -96.3 600 192.6" xml:space="preserve">
<g>
	<g>
		<path fill="#FFFFFF" d="M-108.3,47.2h0.9l1.3,2.2h0.8l-1.4-2.2c0.7-0.1,1.3-0.5,1.3-1.4c0-1-0.6-1.4-1.8-1.4h-1.9v5h0.7V47.2z
			 M-108.3,46.6V45h1c0.5,0,1.1,0.1,1.1,0.7c0,0.8-0.6,0.8-1.2,0.8H-108.3z"/>
		<path fill="#FFFFFF" d="M-102.6,46.9c0,2.7-2.2,4.9-4.9,4.9c-2.7,0-4.9-2.2-4.9-4.9c0-2.7,2.2-4.9,4.9-4.9
			C-104.8,42-102.6,44.2-102.6,46.9z M-107.4,42.9c-2.2,0-4,1.8-4,4c0,2.2,1.8,4,4,4c2.2,0,4-1.8,4-4
			C-103.4,44.7-105.2,42.9-107.4,42.9z"/>
		<path fill="#FFFFFF" d="M-134.5,51c-6.8,0-13,1.2-17.6,3.1c-0.5,0.2-0.9,0.8-0.9,1.4c0,0.2,0.1,0.4,0.1,0.6
			c0.5,1.6-0.3,3.3-4.8,4.2c-6.6,1.4-10.7,8.2-13.1,10.5c-2.8,2.6-10.6,4.3-9.5,2.7c0.9-1.2,4.5-5.1,6.6-9.2c1.9-3.7,3.6-4.8,6-8.3
			c0.7-1,3.4-4.7,4.2-7.6c0.9-2.8,0.6-6.4,0.9-7.8c0.5-2.1,2.5-6.7,2.6-9.2c0.1-1.5-6.1,2.1-9,2.1c-2.9,0-5.8-1.8-8.4-1.9
			c-3.2-0.1-5.3,2.5-8.2,2c-1.7-0.3-3.1-1.7-6-1.8c-4.2-0.2-9.2,2.3-18.8,2c-9.4-0.3-18-11.9-19.2-13.7c-1.4-2.2-3.1-2.2-4.9-0.5
			c-1.8,1.7-4.1,0.4-4.8-0.8c-1.2-2.1-4.5-8.4-9.6-9.8c-7-1.8-10.6,3.9-10.1,8.5c0.5,4.6,3.5,5.9,4.8,8.4c1.4,2.5,2.1,4,4.7,5.1
			c1.8,0.8,2.5,1.9,2,3.4c-0.5,1.3-2.4,1.6-3.7,1.7c-2.7,0.1-4.6-0.6-5.9-1.5c-1.6-1-2.9-2.4-4.3-4.8c-1.6-2.6-4.2-3.8-7.1-3.8
			c-1.4,0-2.7,0.4-3.9,1c-4.6,2.4-10.2,3.8-16.1,3.8l-6.7,0c12.8,38.1,48.9,65.5,91.3,65.5c33.9,0,63.7-17.5,80.9-44
			C-126.5,51.5-130.5,51-134.5,51z"/>
		<path d="M-182.7,43.5c-0.1,0-0.2,0-0.2,0.1c-1.2,1.4-1.8,1.9-2.7,2.7c-2.2,1.8-4.7-0.2-6.2-1.2c-3.5-2.1-6.4-0.8-7.1,0.8
			c-0.7,1.6,0.1,3.6,2,3.3c2.7-0.3,2.8,0.1,4.8,1.3c3.6,2.3,6.3,1,7.6,0c1.1-0.9,1.8-1.7,2.3-2.8c1-2.1,0.2-3.7-0.3-4.2
			C-182.5,43.5-182.6,43.5-182.7,43.5z"/>
		<path d="M-203.7-96.3C-256.9-96.3-300-53.2-300,0c0,10.8,1.8,21.1,5,30.8h6.7c5.9,0,11.5-1.4,16.1-3.8c1.2-0.6,2.5-1,3.9-1
			c3,0,5.5,1.2,7.1,3.8c1.4,2.4,2.7,3.8,4.3,4.8c1.4,0.9,3.3,1.6,5.9,1.5c1.3-0.1,3.2-0.4,3.7-1.7c0.5-1.5-0.1-2.7-2-3.4
			c-2.6-1.1-3.3-2.7-4.7-5.1c-1.4-2.5-4.4-3.8-4.8-8.4c-0.5-4.6,3.1-10.3,10.1-8.5c5.1,1.3,8.4,7.6,9.6,9.8c0.6,1.1,2.9,2.5,4.8,0.8
			c1.8-1.7,3.5-1.7,4.9,0.5c1.2,1.8,9.8,13.4,19.2,13.7c9.5,0.3,14.6-2.2,18.8-2c2.9,0.1,4.3,1.6,6,1.8c2.9,0.5,5-2.2,8.2-2
			c2.6,0.1,5.5,1.9,8.4,1.9c2.9,0,9.1-3.5,9-2.1c-0.1,2.6-2.1,7.1-2.6,9.2c-0.3,1.5,0,5-0.9,7.8c-0.8,2.9-3.5,6.5-4.2,7.6
			c-2.4,3.5-4.1,4.6-6,8.3c-2.2,4.2-5.7,8-6.6,9.2c-1.2,1.6,6.7-0.1,9.5-2.7c2.4-2.3,6.5-9,13.1-10.5c4.4-1,5.3-2.7,4.8-4.2
			c-0.1-0.2-0.1-0.4-0.1-0.6c0-0.6,0.4-1.1,0.9-1.4c4.6-1.9,10.8-3.1,17.6-3.1c4,0,7.9,0.5,11.6,1.4c9.8-15.1,15.5-33.1,15.5-52.4
			C-107.4-53.2-150.5-96.3-203.7-96.3z"/>
		<path fill="#E12434" d="M-149.3-25.6c-1,3.2-2.3,7.3-8.3,10.4c-0.9,0.5-1.2-0.3-0.8-1c2.3-3.9,2.7-4.8,3.3-6.4
			c0.9-2.2,1.4-5.4-0.4-12c-3.6-13-11.2-30.5-16.7-36.1c-5.3-5.5-14.9-7-23.6-4.8c-3.2,0.8-9.5,4.1-21.1,1.5
			c-20.1-4.5-23.1,5.5-24.2,9.9c-1.2,4.4-3.9,16.8-3.9,16.8c-0.9,5.1-2.1,13.9,29,19.8c14.5,2.8,15.3,6.5,15.9,9.2
			c1.2,4.8,3,7.6,5.1,9c2.1,1.4,0,2.5-2.3,2.8c-6.2,0.6-29-5.9-42.6-13.6c-11.1-6.8-11.2-12.9-8.7-18c-16.7-1.8-29.3,1.6-31.5,9.5
			c-3.9,13.6,29.9,36.8,68.3,48.4c40.3,12.2,81.8,3.7,86.4-21.7C-123.3-13.4-133-21.9-149.3-25.6z M-211.2-50.5
			c-11.1,0.8-12.3,2-14.4,4.2c-2.9,3.1-6.8-4.1-6.8-4.1c-2.3-0.5-5.1-4.2-3.6-7.7c1.5-3.5,4.3-2.4,5.1-1.3c1.1,1.3,3.3,3.5,6.2,3.4
			c2.9-0.1,6.3-0.7,11-0.7c4.8,0,8,1.8,8.1,3.3C-205.3-52.1-205.9-50.8-211.2-50.5z M-187.1-61.5c-2,0-3.9-0.3-5.5-0.8
			c-0.2,0-0.3-0.2-0.3-0.4c0-0.2,0.1-0.4,0.3-0.4c3.9-0.9,6.5-2.3,6.3-3.7c-0.2-1.8-5.3-2.8-11.3-2.2c-0.7,0.1-1.3,0.2-1.9,0.2
			c0,0,0,0,0,0c-0.2,0-0.3-0.1-0.3-0.3c0-0.1,0.1-0.2,0.2-0.3c2.2-1.1,5.4-2,9.1-2.4c1.1-0.1,2.2-0.2,3.2-0.2c0.2,0,0.4,0,0.5,0
			c6.2,0.1,11.1,2.6,11,5.5C-175.9-63.6-180.9-61.4-187.1-61.5z"/>
	</g>
	<g>
		<path fill="#FFFFFF" d="M-58.3,6.1c0-8.8-0.2-15.3-0.5-21.2h14.4l0.6,12.5h0.5c3.2-9.3,10.9-14,18.1-14c1.6,0,2.6,0.1,3.9,0.4
			v15.7c-1.6-0.3-3-0.5-5-0.5c-8,0-13.5,5.1-15,12.6c-0.3,1.5-0.4,3.2-0.4,5v34.2h-16.7L-58.3,6.1z"/>
		<path fill="#FFFFFF" d="M-1.1,22.4c0.4,12,9.7,17.2,20.4,17.2c7.7,0,13.2-1.2,18.2-3.1L39.9,48c-5.6,2.4-13.5,4.2-23.1,4.2
			c-21.4,0-34-13.2-34-33.5c0-18.2,11-35.4,32.3-35.4c21.5,0,28.4,17.6,28.4,32.1c0,3.1-0.3,5.6-0.6,7.1L-1.1,22.4z M27.9,10.7
			C28,4.6,25.3-5.3,14.1-5.3C3.8-5.3-0.4,4-1.2,10.7H27.9z"/>
		<path fill="#FFFFFF" d="M241.2,35.2c0,5.2,0.2,10.6,1,15.7h-6l-1-9.5h-0.3c-3.2,5.1-10.6,11-21.1,11c-13.3,0-19.5-9.3-19.5-18.2
			c0-15.2,13.5-24.4,40.3-24.1V8.3c0-6.5-1.3-19.6-16.9-19.5c-5.8,0-11.8,1.5-16.6,4.9l-2.1-4.8c6-4.1,13.4-5.7,19.4-5.7
			c19.1,0,22.7,14.3,22.7,26.1V35.2z M234.6,15.6c-14.4-0.4-33.4,1.8-33.4,17.6c0,9.5,6.3,13.8,13.1,13.8c11,0,17.3-6.8,19.5-13.2
			c0.5-1.4,0.7-2.8,0.7-4V15.6z"/>
		<path fill="#FFFFFF" d="M267.2-29.7v14.6H286v5.3h-18.8V33c0,8.4,2.6,13.7,9.7,13.7c3.4,0,5.8-0.4,7.5-1l0.8,5.1
			c-2.1,0.9-5.1,1.6-9.1,1.6c-4.8,0-8.8-1.5-11.4-4.7c-3-3.5-4-9-4-15.7V-9.9h-11.1v-5.3h11.1v-12.1L267.2-29.7z"/>
		<path fill="#FFFFFF" d="M294.2,47.3h0.9l1.3,2.1h0.8l-1.4-2.2c0.7-0.1,1.3-0.5,1.3-1.4c0-1-0.6-1.4-1.8-1.4h-1.9v5h0.8V47.3z
			 M294.2,46.7v-1.5h1c0.5,0,1.1,0.1,1.1,0.7c0,0.8-0.6,0.8-1.2,0.8H294.2z"/>
		<path fill="#FFFFFF" d="M300,47c0,2.7-2.2,4.9-4.9,4.9c-2.7,0-4.9-2.2-4.9-4.9c0-2.7,2.2-4.9,4.9-4.9C297.8,42.1,300,44.3,300,47z
			 M295.1,43c-2.2,0-4,1.8-4,4c0,2.2,1.8,4,4,4c2.2,0,4-1.8,4-4C299.1,44.8,297.3,43,295.1,43z"/>
		<path fill="#FFFFFF" d="M98.8-8h-0.3c-3-4.9-9.5-8.6-18.5-8.6c-15.9,0-29.7,13.1-29.6,35.2c0,20.3,12.5,33.7,28.2,33.7
			c9.5,0,17.5-4.5,21.4-11.9h0.3l0.7,10.4H116c-0.3-4.5-0.5-11.8-0.5-18.5v-72.8l-16.7-4.8V-8z M98.8,22.2c0,1.7-0.1,3.4-0.5,4.9
			C96.6,34.3,90.7,39,83.9,39c-10.5,0-16.5-8.9-16.5-21c0-12.2,6-21.7,16.7-21.7c7.5,0,12.9,5.3,14.3,11.7c0.3,1.4,0.4,3,0.4,4.4
			V22.2z"/>
		<path fill="#FFFFFF" d="M159.6-16.7c-5,0-9.5,1.4-13.3,3.8c-3.9,2.3-7.1,5.8-9,9.5H137v-30.9l-6.5-1.9v87h6.5V10.5
			c0-2.7,0.2-4.5,0.9-6.5c2.8-8.2,10.6-15,19.9-15C171.3-11,176-0.1,176,11.7v39.1h6.5V11C182.5-13.6,165.9-16.7,159.6-16.7z"/>
	</g>
</g>
</svg>
