<?xml version="1.0" encoding="utf-8"?>
<!-- Generator: Adobe Illustrator 18.1.1, SVG Export Plug-In . SVG Version: 6.00 Build 0)  -->
<svg version="1.1" id="logo" xmlns="http://www.w3.org/2000/svg" xmlns:xlink="http://www.w3.org/1999/xlink" x="0px" y="0px"
	 viewBox="0 0 36.9 36" enable-background="new 0 0 36.9 36" xml:space="preserve">
<g>
	<g>
		<path fill="#FFFFFF" d="M35.8,26.8H36l0.2,0.4h0.2l-0.3-0.4c0.1,0,0.2-0.1,0.2-0.3c0-0.2-0.1-0.3-0.3-0.3h-0.4v0.9h0.1V26.8z
			 M35.8,26.7v-0.3H36c0.1,0,0.2,0,0.2,0.1c0,0.1-0.1,0.2-0.2,0.2H35.8z"/>
		<path fill="#FFFFFF" d="M36.9,26.8c0,0.5-0.4,0.9-0.9,0.9c-0.5,0-0.9-0.4-0.9-0.9c0-0.5,0.4-0.9,0.9-0.9
			C36.5,25.9,36.9,26.3,36.9,26.8z M36,26c-0.4,0-0.7,0.3-0.7,0.7c0,0.4,0.3,0.7,0.7,0.7c0.4,0,0.7-0.3,0.7-0.7
			C36.7,26.3,36.4,26,36,26z"/>
		<path fill="#FFFFFF" d="M30.9,27.5c-1.3,0-2.4,0.2-3.3,0.6c-0.1,0-0.2,0.1-0.2,0.3c0,0,0,0.1,0,0.1c0.1,0.3-0.1,0.6-0.9,0.8
			c-1.2,0.3-2,1.5-2.4,2c-0.5,0.5-2,0.8-1.8,0.5c0.2-0.2,0.8-0.9,1.2-1.7c0.4-0.7,0.7-0.9,1.1-1.6c0.1-0.2,0.6-0.9,0.8-1.4
			c0.2-0.5,0.1-1.2,0.2-1.5c0.1-0.4,0.5-1.2,0.5-1.7c0-0.3-1.1,0.4-1.7,0.4c-0.5,0-1.1-0.3-1.6-0.4c-0.6,0-1,0.5-1.5,0.4
			c-0.3,0-0.6-0.3-1.1-0.3c-0.8,0-1.7,0.4-3.5,0.4c-1.8-0.1-3.4-2.2-3.6-2.6c-0.3-0.4-0.6-0.4-0.9-0.1c-0.3,0.3-0.8,0.1-0.9-0.1
			c-0.2-0.4-0.8-1.6-1.8-1.8c-1.3-0.3-2,0.7-1.9,1.6c0.1,0.9,0.6,1.1,0.9,1.6c0.3,0.5,0.4,0.8,0.9,1c0.3,0.1,0.5,0.4,0.4,0.6
			c-0.1,0.2-0.4,0.3-0.7,0.3c-0.5,0-0.9-0.1-1.1-0.3c-0.3-0.2-0.5-0.5-0.8-0.9c-0.3-0.5-0.8-0.7-1.3-0.7c-0.3,0-0.5,0.1-0.7,0.2
			c-0.9,0.5-1.9,0.7-3,0.7l-1.3,0C3.3,30.9,10.1,36,18,36c6.3,0,11.9-3.3,15.1-8.2C32.4,27.6,31.7,27.5,30.9,27.5z"/>
		<path d="M21.9,26.1C21.9,26.1,21.9,26.1,21.9,26.1c-0.3,0.3-0.4,0.4-0.5,0.5c-0.4,0.3-0.9,0-1.2-0.2c-0.7-0.4-1.2-0.1-1.3,0.2
			c-0.1,0.3,0,0.7,0.4,0.6c0.5-0.1,0.5,0,0.9,0.2c0.7,0.4,1.2,0.2,1.4,0c0.2-0.2,0.3-0.3,0.4-0.5C22.2,26.5,22.1,26.2,21.9,26.1
			C22,26.1,21.9,26.1,21.9,26.1z"/>
		<path d="M18,0C8.1,0,0,8.1,0,18c0,2,0.3,3.9,0.9,5.8h1.3c1.1,0,2.1-0.3,3-0.7c0.2-0.1,0.5-0.2,0.7-0.2c0.6,0,1,0.2,1.3,0.7
			c0.3,0.4,0.5,0.7,0.8,0.9c0.3,0.2,0.6,0.3,1.1,0.3c0.2,0,0.6-0.1,0.7-0.3c0.1-0.3,0-0.5-0.4-0.6c-0.5-0.2-0.6-0.5-0.9-1
			c-0.3-0.5-0.8-0.7-0.9-1.6c-0.1-0.9,0.6-1.9,1.9-1.6c1,0.2,1.6,1.4,1.8,1.8c0.1,0.2,0.5,0.5,0.9,0.1c0.3-0.3,0.7-0.3,0.9,0.1
			c0.2,0.3,1.8,2.5,3.6,2.6c1.8,0.1,2.7-0.4,3.5-0.4c0.5,0,0.8,0.3,1.1,0.3c0.5,0.1,0.9-0.4,1.5-0.4c0.5,0,1,0.3,1.6,0.3
			c0.5,0,1.7-0.7,1.7-0.4c0,0.5-0.4,1.3-0.5,1.7c-0.1,0.3,0,0.9-0.2,1.5c-0.1,0.5-0.6,1.2-0.8,1.4c-0.4,0.7-0.8,0.9-1.1,1.6
			c-0.4,0.8-1.1,1.5-1.2,1.7c-0.2,0.3,1.2,0,1.8-0.5c0.4-0.4,1.2-1.7,2.4-2c0.8-0.2,1-0.5,0.9-0.8c0,0,0-0.1,0-0.1
			c0-0.1,0.1-0.2,0.2-0.3c0.9-0.4,2-0.6,3.3-0.6c0.7,0,1.5,0.1,2.2,0.3C34.9,25,36,21.6,36,18C36,8.1,27.9,0,18,0z"/>
		<path fill="#E22434" d="M28.2,13.2c-0.2,0.6-0.4,1.4-1.6,1.9c-0.2,0.1-0.2-0.1-0.2-0.2c0.4-0.7,0.5-0.9,0.6-1.2
			c0.2-0.4,0.3-1-0.1-2.2c-0.7-2.4-2.1-5.7-3.1-6.7c-1-1-2.8-1.3-4.4-0.9c-0.6,0.2-1.8,0.8-3.9,0.3c-3.8-0.8-4.3,1-4.5,1.9
			c-0.2,0.8-0.7,3.1-0.7,3.1c-0.2,0.9-0.4,2.6,5.4,3.7c2.7,0.5,2.9,1.2,3,1.7c0.2,0.9,0.6,1.4,0.9,1.7c0.4,0.3,0,0.5-0.4,0.5
			c-1.2,0.1-5.4-1.1-8-2.5c-2.1-1.3-2.1-2.4-1.6-3.4c-3.1-0.3-5.5,0.3-5.9,1.8c-0.7,2.5,5.6,6.9,12.8,9c7.5,2.3,15.3,0.7,16.2-4
			C33,15.5,31.2,13.9,28.2,13.2z M16.6,8.6c-2.1,0.2-2.3,0.4-2.7,0.8c-0.5,0.6-1.3-0.8-1.3-0.8c-0.4-0.1-1-0.8-0.7-1.4
			c0.3-0.6,0.8-0.5,1-0.3c0.2,0.2,0.6,0.6,1.2,0.6c0.5,0,1.2-0.1,2.1-0.1c0.9,0,1.5,0.3,1.5,0.6C17.7,8.3,17.6,8.5,16.6,8.6z
			 M21.1,6.5c-0.4,0-0.7-0.1-1-0.2c0,0-0.1,0-0.1-0.1c0,0,0-0.1,0.1-0.1c0.7-0.2,1.2-0.4,1.2-0.7c0-0.3-1-0.5-2.1-0.4
			c-0.1,0-0.2,0-0.4,0c0,0,0,0,0,0c0,0-0.1,0-0.1-0.1c0,0,0,0,0,0c0.4-0.2,1-0.4,1.7-0.5c0.2,0,0.4,0,0.6,0c0,0,0.1,0,0.1,0
			c1.2,0,2.1,0.5,2.1,1C23.2,6.1,22.3,6.5,21.1,6.5z"/>
	</g>
</g>
</svg>
