<?xml version="1.0" encoding="utf-8"?>
<!-- Generator: Adobe Illustrator 16.0.0, SVG Export Plug-In . SVG Version: 6.00 Build 0)  -->
<!DOCTYPE svg PUBLIC "-//W3C//DTD SVG 1.1//EN" "http://www.w3.org/Graphics/SVG/1.1/DTD/svg11.dtd">
<svg version="1.1" id="Layer_1" xmlns="http://www.w3.org/2000/svg" xmlns:xlink="http://www.w3.org/1999/xlink" x="0px" y="0px"
	 width="191.699px" height="60px" viewBox="-59.685 5.035 191.699 60" enable-background="new -59.685 5.035 191.699 60"
	 xml:space="preserve">
<g>
	<path fill="#FFFFFF" d="M-49.573,28.132c3.186,0,6.372,0,9.558,0c0.884,2.713,1.665,5.445,2.493,8.172
		c0.616,2.029,1.343,4.052,1.94,6.095c0.206,0.708,0.345,1.398,0.554,2.078c1.665,5.441,3.449,10.839,4.987,16.345
		c-2.54,0-5.08,0-7.619,0c-0.627-2.098-1.148-4.3-1.801-6.372c-0.279,0.004-10.398,0.058-10.804,0.139
		c-0.707,1.973-1.179,4.177-1.801,6.233c-2.54,0-5.079,0-7.619,0c2.381-8.111,4.814-16.179,7.341-24.24
		c0.844-2.694,1.547-5.396,2.494-8.034C-49.855,28.31-49.747,28.188-49.573,28.132z M-45.14,35.473
		c-1.068,4.138-2.323,8.555-3.463,12.743c0.239,0.016,6.993-0.01,7.341,0c-1.166-4.421-2.319-8.854-3.601-13.158
		C-44.995,35.109-45.106,35.339-45.14,35.473z"/>
	<path fill="#FFFFFF" d="M-9.437,51.402c-4.247,0-8.496,0-12.743,0c-0.044,0.757,0.001,1.363,0.138,1.939
		c0.075,0.314,0.132,0.366,0.277,0.692c0.364,0.818,1.287,1.176,1.523,1.246c1.128,0.336,2.244,0.266,3.74,0.139
		c1.485-0.125,2.878-0.271,4.156-0.554c0.646-0.143,1.224-0.252,1.662-0.277c0.394,1.685,0.763,3.683,0.969,5.264
		c-2.236,0.726-4.973,1.338-7.757,1.523c-2.229,0.149-4.439-0.104-6.243-0.755c-0.328-0.117-0.68-0.225-0.96-0.353
		c-0.445-0.205-1.008-0.603-1.523-0.97c-0.049-0.034-0.925-0.869-1.386-1.523s-1.293-2.146-1.523-3.325
		c-0.268-1.369-0.139-3.126-0.139-4.847c0-1.761-0.137-3.581,0-5.126c0.118-1.312,0.549-2.572,1.108-3.602
		c0.394-0.723,0.786-1.473,1.247-1.938c0.115-0.116,0.716-0.613,0.831-0.694c0.956-0.659,2.382-1.144,3.74-1.522
		c1.562-0.437,4.269-0.331,6.094,0c0.608,0.11,1.13,0.226,1.663,0.415c0.47,0.168,0.969,0.363,1.331,0.564
		c0.24,0.134,0.625,0.375,0.667,0.401c1.842,1.134,2.937,3.914,3.125,6.376C-9.279,46.516-9.385,48.926-9.437,51.402z
		 M-17.054,42.537c-1.248-0.809-3.894-0.39-4.571,0.415c-0.043,0.053-0.242,0.366-0.276,0.416c-0.411,0.597-0.298,2.167-0.277,2.632
		c2.031,0,4.063,0,6.095,0C-15.997,44.277-16.206,43.087-17.054,42.537z"/>
	<path fill="#FFFFFF" d="M7.707,42.952c-0.05,0.313-0.166,0.313-0.692,0.556c-0.702,0.321-1.709,0.587-2.494,0.969
		c-1.096,0.534-2.319,1.166-3.047,1.662c0,4.894,0,9.788,0,14.683c0.006,0.012-7.202,0.012-7.229-0.015
		c0-7.895,0.025-15.915,0.025-23.81c1.426-0.018,4.527-0.003,5.956,0c0.133,0.745,0.239,1.33,0.416,2.216
		c1.949-1.097,4.017-2.078,6.372-2.771C7.503,38.355,7.675,41.397,7.707,42.952z"/>
	<g>
		<path fill="#FFFFFF" d="M53.488,8.651L51.325,5.44c-0.214-0.318-0.681-0.471-1.15-0.38l-5.979,1.161
			c-0.471,0.091-0.844,0.407-0.923,0.782l-0.802,3.863c1.71-0.866,3.562-1.516,5.537-1.897C49.857,8.614,51.694,8.522,53.488,8.651z
			"/>
		<g>
			<path fill="#FFFFFF" d="M90.547,26.42c-0.319-0.373-1.036-1.004-1.662-1.384c-0.179-0.109-1.434-0.705-2.076-0.939
				c-0.44-0.16-1.321-0.279-1.524-0.308c-0.504-0.072-1.092-0.106-1.662-0.138c-0.585-0.033-2.529-0.034-3.464,0.138
				c-0.585,0.108-1.253,0.335-1.523,0.417c-0.959,0.282-2.021,0.749-2.836,1.329l-0.704-3.563c-0.095-0.466-0.411-0.841-0.784-0.919
				l-3.312-0.676c-0.85-1.752-1.93-3.35-3.19-4.771l0.682-3.39c0.075-0.372-0.146-0.812-0.543-1.079l-5.044-3.414
				c-0.396-0.266-0.886-0.308-1.206-0.102l-3.012,1.952c-3.418-1.145-7.174-1.434-10.959-0.652c-3.647,0.753-6.877,2.409-9.51,4.681
				l-3.837-0.75c-0.375-0.072-0.815,0.15-1.082,0.545l-3.408,5.049c-0.268,0.397-0.31,0.886-0.1,1.204l2.167,3.306
				c-0.518,1.555-0.857,3.178-1,4.843l-3.439,2.273c-0.32,0.212-0.474,0.676-0.386,1.145l1.135,5.985
				c0.088,0.47,0.405,0.847,0.779,0.93l4.042,0.875c0.736,1.483,1.637,2.855,2.674,4.1l-0.8,3.984
				c-0.074,0.375,0.146,0.812,0.543,1.081l5.043,3.414c0.397,0.268,0.886,0.308,1.206,0.101l3.302-2.14
				c2.217,0.773,4.58,1.187,7.006,1.177c-6.985-1.147-12.875-6.467-14.393-13.812c-1.968-9.524,4.156-18.84,13.681-20.808
				c9.524-1.968,18.839,4.157,20.807,13.681c0.238,1.149,0.354,2.294,0.361,3.424c-0.253,3.323-0.009,7.34,0.574,9.281
				c0.083,0.276,0.159,0.538,0.277,0.831c0.217,0.538,0.517,1.255,0.692,1.523c0.074,0.114,0.574,0.704,0.692,0.831
				c0.223,0.238,0.537,0.454,0.832,0.693c0.635,0.515,1.789,1.142,2.354,1.385c0.683,0.293,1.729,0.54,1.801,0.555
				c0.645,0.126,0.898,0.086,1.385,0.138c3.75,0.402,7.677-0.348,11.081-1.386c-0.25-1.92-0.527-3.812-1.107-5.401
				c-1.532,0.446-5.297,1.284-7.896,1.108c-1.089-0.073-2.669-0.57-3.048-1.108c-0.064-0.092-0.254-0.485-0.277-0.555
				c-0.08-0.238-0.106-0.64-0.138-0.831c-0.09-0.54-0.01-1.183,0-1.662c4.248,0,8.496,0,12.743,0
				c0.081-4.503,0.207-8.532-1.246-11.081C91.035,27.171,90.763,26.673,90.547,26.42z M85.837,33.208c-2.031,0-4.062,0-6.094,0
				c-0.24-1.804,0.33-3.529,2.077-3.879c0.78-0.155,2.325-0.06,2.909,0.278c0.057,0.033,0.558,0.311,0.831,0.831
				c0.077,0.147,0.247,0.601,0.276,0.97C85.886,32.008,85.861,32.68,85.837,33.208z"/>
			<path fill="#FFFFFF" d="M113.774,27.667c-0.213-0.562-0.645-1.212-0.864-1.468c-0.126-0.147-0.48-0.516-0.798-0.748
				c-0.689-0.504-1.138-0.759-2.216-1.108c-1.299-0.42-2.591-0.62-4.155-0.692c-0.867-0.041-1.66-0.084-2.355,0
				c-2.525,0.303-5.557,0.392-7.619,1.247c0.172,1.86,0.642,3.422,0.832,5.264c1.475-0.216,4.327-0.692,6.647-0.692
				c0.811,0,2.174,0.065,2.633,0.277c0.54,0.249,1.063,0.739,1.247,1.247c0.152,0.423,0.108,1.035,0.138,1.801
				c0.024,0.646,0.047,1.325,0,1.8c-2.99,0.202-4.744-0.282-7.064,0c-1.008,0.123-2.136,0.662-2.631,0.97
				c-1.903,1.183-2.772,3.657-2.494,6.787c0.167,1.865,0.977,3.843,2.078,4.849c0.451,0.411,1.388,0.865,1.663,0.97
				c3.198,1.209,6.999-0.437,9.28-1.663c0.237,0.675,0.157,1.142,0.811,1.443c0.23,0.106,1.706,0.081,2.651,0.081
				c1.026,0,2.052,0,2.771,0c0.096-4.448,0.339-10.87,0.139-15.652C114.401,30.818,114.223,28.853,113.774,27.667z M103.108,43.042
				c0.023,0.006-0.45-0.023-0.831-0.415c-0.543-0.558-0.552-2.237,0-2.771c0.838-0.808,3.354-0.228,4.986-0.415
				c0.091,0.786-0.182,1.937,0.139,2.493C106.781,42.535,104.494,43.339,103.108,43.042z"/>
			<path fill="#FFFFFF" d="M131.322,23.789c-0.009-0.084-0.021-0.164-0.139-0.138c-1.133,0.324-2.425,0.764-3.462,1.247
				c-0.87,0.404-1.872,0.964-2.494,1.385c-0.115,0.078-0.236,0.15-0.277,0c-0.115-0.332-0.172-0.748-0.276-1.108
				c-0.193-0.665-0.141-1.021-0.426-1.021c-1.345-0.101-4.075-0.089-5.669-0.086c0,7.987,0,15.975,0,23.963c2.355,0,4.71,0,7.063,0
				c0-4.849,0-9.697,0-14.544c1.901-1.284,4.189-2.182,6.372-3.186C131.866,27.961,131.546,24.846,131.322,23.789z"/>
		</g>
		<path fill="#FFFFFF" d="M65.633,34.111c0.047-4.126-3.357-6.506-6.559-7.358c-0.927-0.247-1.866-0.353-2.79-0.314
			c-3.905,0.16-7.114,2.844-8.177,6.838c-0.661,2.484-0.381,4.995,0.787,7.067c1.156,2.051,3.095,3.526,5.458,4.155
			c0.991,0.264,1.989,0.378,2.966,0.337c1.519-0.062,3.602-0.532,5.385-2.308l-8.805-2.344c-0.388-0.103-0.62-0.502-0.517-0.89
			l1.008-3.786c0.104-0.388,0.501-0.619,0.891-0.516l14.272,3.797c0.318-1.193,0.471-2.442,0.439-3.717l-3.677-0.228
			C65.929,34.822,65.628,34.499,65.633,34.111z"/>
	</g>
	<path fill="#FFFFFF" d="M34.767,50.731l-2.227-1.516c-0.002-0.032-0.003-0.064-0.006-0.097c-0.073-0.756-0.218-1.497-0.424-2.214
		c-0.009-0.03-0.021-0.062-0.029-0.091l1.518-2.284c0.127-0.189,0.105-0.482-0.05-0.72l-1.979-3.031
		c-0.155-0.237-0.413-0.373-0.635-0.331l-2.682,0.507c-0.024-0.021-0.047-0.043-0.072-0.063c-0.553-0.458-1.148-0.871-1.784-1.229
		c-0.027-0.016-0.056-0.027-0.083-0.043l-0.544-2.733c-0.045-0.223-0.266-0.413-0.542-0.47l-3.528-0.718
		c-0.276-0.056-0.552,0.033-0.68,0.221l-1.522,2.259c-0.031,0.002-0.063,0.003-0.095,0.006c-0.755,0.07-1.496,0.215-2.213,0.423
		c-0.032,0.01-0.062,0.022-0.094,0.031l-2.259-1.509c-0.188-0.125-0.478-0.103-0.714,0.055l-3.006,2.014
		c-0.236,0.158-0.37,0.419-0.328,0.644l0.489,2.621c-0.02,0.023-0.043,0.046-0.063,0.07c-0.494,0.595-0.936,1.241-1.314,1.931
		c-0.015,0.028-0.028,0.058-0.043,0.086l-2.675,0.53c-0.222,0.043-0.413,0.265-0.471,0.543l-0.741,3.564
		C5.913,49.466,6,49.745,6.186,49.876l2.238,1.565c0.002,0.032,0.003,0.063,0.006,0.096c0.071,0.775,0.216,1.534,0.428,2.27
		c0.009,0.032,0.02,0.062,0.03,0.093l-1.509,2.27c-0.125,0.189-0.105,0.481,0.051,0.72l1.978,3.03
		c0.155,0.237,0.413,0.373,0.635,0.331l2.656-0.501c0.025,0.02,0.047,0.043,0.072,0.064c0.597,0.495,1.244,0.938,1.936,1.315
		c0.028,0.016,0.058,0.028,0.085,0.042l0.513,2.654c0.043,0.224,0.263,0.415,0.541,0.469l3.525,0.724
		c0.277,0.057,0.554-0.033,0.683-0.222l1.547-2.267c0.031-0.004,0.065-0.004,0.097-0.007c0.509-0.054,1.011-0.142,1.503-0.26
		c-0.719,0.075-1.456,0.075-2.205-0.031c-4.923-0.698-8.347-5.257-7.647-10.178c0.699-4.924,5.256-8.349,10.18-7.648
		c4.922,0.698,8.346,5.256,7.647,10.179c-0.161,1.132-0.533,2.179-1.059,3.119c0.361-0.48,0.699-0.982,0.989-1.52
		c0.016-0.029,0.028-0.06,0.044-0.088l2.657-0.559c0.221-0.048,0.411-0.271,0.466-0.551l0.713-3.567
		C35.043,51.138,34.955,50.859,34.767,50.731z"/>
</g>
</svg>
